<svg width="311" height="320" viewBox="0 0 311 320" fill="none" xmlns="http://www.w3.org/2000/svg">
<g filter="url(#filter0_d_7_358)">
<path d="M123.124 39.4773C133.924 23.7262 158.917 20.0201 173.419 32.3739C182.059 39.4773 186.687 50.9045 188.23 62.0228C189.772 73.1412 188.538 84.5684 187.304 95.9956C199.955 81.7888 222.171 81.7888 240.376 87.348C248.707 90.1276 257.346 94.1426 261.666 101.864C264.134 106.496 264.751 112.055 265.06 117.306C265.369 128.733 262.9 140.778 255.186 149.117C250.249 154.367 243.153 157.764 236.364 160.544C224.948 164.868 212.606 167.647 200.88 164.25C210.137 176.295 212.606 192.355 213.531 207.488C214.457 222.004 213.223 238.99 201.498 247.638C189.155 256.594 171.568 251.344 159.843 241.77C145.958 230.343 137.009 212.738 135.775 194.826C129.604 201.311 123.124 208.106 115.102 211.812C109.24 214.592 102.451 215.518 95.6631 216.136C86.715 216.753 77.1497 216.445 68.8187 212.738C54.0081 206.562 44.1343 190.502 45.06 174.442C45.9856 158.382 58.0193 143.558 73.4471 139.543C64.1904 129.351 56.7851 117.306 52.4653 104.334C48.7626 93.8337 47.2199 80.5534 54.6252 72.2147C60.4877 65.4201 70.053 63.5671 78.6925 64.1847C86.0978 64.8024 93.1946 67.2732 99.6743 70.9793C102.451 72.5235 112.942 83.9507 116.028 82.4065C118.805 81.1711 116.028 66.3466 116.028 62.6405C116.645 54.3017 118.496 46.2718 123.124 39.4773Z" fill="#FFD432"/>
<path d="M112.815 32.4087L112.804 32.4244L112.794 32.44C107.044 40.881 104.715 50.273 103.805 58.9862C96.5267 55.135 88.4054 52.4515 79.7315 51.728L79.6578 51.7218L79.5839 51.7166C69.2475 50.9776 54.8316 52.9002 45.2189 63.982C38.9624 71.0677 36.984 79.7068 36.8809 87.2939C36.7785 94.8309 38.484 102.244 40.6399 108.387C43.8269 117.922 48.4406 126.928 54.0747 135.156C41.7875 144.048 33.464 158.398 32.5807 173.723C31.3582 194.932 44.1461 215.921 63.8723 224.219C75.0114 229.133 87.0191 229.262 96.5239 228.606L96.66 228.597L96.7958 228.584C103.64 227.962 112.372 226.925 120.399 223.134C123.242 221.816 125.905 220.222 128.392 218.477C133.276 231.207 141.373 242.758 151.899 251.421L151.918 251.437L151.937 251.452C159.174 257.362 168.383 262.108 178.133 263.938C187.979 265.786 199.2 264.75 208.839 257.755L208.878 257.726L208.917 257.698C217.948 251.037 222.357 241.537 224.434 232.591C226.491 223.733 226.501 214.471 226.007 206.712C225.462 197.81 224.379 187.562 221.299 177.554C228.334 176.51 234.949 174.446 240.792 172.234L240.947 172.175L241.101 172.112C247.988 169.292 257.349 165.064 264.293 157.68L264.328 157.642L264.362 157.605C275.225 145.862 277.906 129.962 277.555 116.968L277.55 116.77L277.538 116.573C277.226 111.26 276.564 103.242 272.698 95.9856L272.637 95.8724L272.575 95.7604C265.754 83.5699 252.89 78.3461 244.332 75.4906L244.18 75.4398L244.026 75.393C231.818 71.6651 215.953 69.6212 201.446 73.4964C201.455 69.1414 201.223 64.7185 200.611 60.3048C198.823 47.4213 193.309 32.5926 181.441 22.7872C170.998 13.9383 157.373 11.252 145.107 13.0131C132.812 14.7784 120.499 21.2013 112.815 32.4087Z" stroke="white" stroke-width="25"/>
</g>
<circle cx="151.369" cy="75.9617" r="4" fill="white"/>
<circle cx="95.3685" cy="117.962" r="4" fill="white"/>
<circle cx="99.3685" cy="174.962" r="4" fill="white"/>
<circle cx="174.369" cy="187.962" r="4" fill="white"/>
<circle cx="216.369" cy="130.962" r="4" fill="white"/>
<rect x="124.97" y="104.107" width="7" height="32" rx="3.5" transform="rotate(-12.5719 124.97 104.107)" fill="white"/>
<rect x="145.087" y="101.107" width="7" height="32" rx="3.5" transform="rotate(4.69041 145.087 101.107)" fill="white"/>
<rect x="164.558" y="104.962" width="7" height="32" rx="3.5" transform="rotate(22.3906 164.558 104.962)" fill="white"/>
<defs>
<filter id="filter0_d_7_358" x="0.000183105" y="0.00543213" width="310.084" height="319.235" filterUnits="userSpaceOnUse" color-interpolation-filters="sRGB">
<feFlood flood-opacity="0" result="BackgroundImageFix"/>
<feColorMatrix in="SourceAlpha" type="matrix" values="0 0 0 0 0 0 0 0 0 0 0 0 0 0 0 0 0 0 127 0" result="hardAlpha"/>
<feOffset dy="22"/>
<feGaussianBlur stdDeviation="10"/>
<feComposite in2="hardAlpha" operator="out"/>
<feColorMatrix type="matrix" values="0 0 0 0 1 0 0 0 0 0.498039 0 0 0 0 0.145098 0 0 0 0.22 0"/>
<feBlend mode="normal" in2="BackgroundImageFix" result="effect1_dropShadow_7_358"/>
<feBlend mode="normal" in="SourceGraphic" in2="effect1_dropShadow_7_358" result="shape"/>
</filter>
</defs>
</svg>
